<mxfile host="app.diagrams.net" modified="2023-04-05T02:42:54.251Z" agent="Mozilla/5.0 (Windows NT 10.0; Win64; x64) AppleWebKit/537.36 (KHTML, like Gecko) Chrome/111.0.0.0 Safari/537.36" version="21.1.4" etag="cit_rXdkHMCjVgG-uD6X" type="github">
  <diagram name="第 1 页" id="RkDC4rOG-JaYH36t-Z6l">
    <mxGraphModel>
      <root>
        <mxCell id="0" />
        <mxCell id="1" parent="0" />
      </root>
    </mxGraphModel>
  </diagram>
</mxfile>
